<?xml version="1.0" encoding="UTF-8"?>
<svg xmlns="http://www.w3.org/2000/svg" width="454" height="67" viewBox="0 0 454 67" fill="none">
  <path d="M0.7 66.8L21.94 0.199997H30.04L8.8 66.8H0.7ZM75.1068 39.89H61.5168V65H52.5168V2H84.8268L95.2668 8.03V33.86L84.8268 39.89L99.3168 65H89.3268L75.1068 39.89ZM61.5168 10.1V31.79H86.2668V10.1H61.5168ZM151.991 36.65V56.9H178.901V65H142.991V2H178.901V10.1H151.991V28.55H173.501V36.65H151.991ZM250.367 2L272.867 65H264.047L258.737 50.06H230.837L225.527 65H216.707L239.207 2H250.367ZM244.697 10.91L233.717 41.96H255.857L244.877 10.91H244.697ZM349.823 49.25H358.823V59.42L348.383 65.45H324.713L314.273 59.42V7.58L324.713 1.55H348.383L358.823 7.58V17.75H349.823V9.65H323.273V57.35H349.823V49.25ZM414.626 36.65V65H405.626V2H414.626V28.55H444.776V2H453.776V65H444.776V36.65H414.626Z" fill="white"></path>
</svg>
