<?xml version="1.0" encoding="UTF-8"?>
<svg xmlns="http://www.w3.org/2000/svg" width="156" height="43" viewBox="0 0 156 43" fill="none">
  <g clip-path="url(#clip0_74_1920)">
    <path d="M51.1277 8.944V32.4153H44.0821V30.2075C42.5369 31.9933 40.2346 33.0737 37.0903 33.0737C30.9391 33.0737 25.8745 27.6786 25.8745 20.6776C25.8745 13.6847 30.9458 8.28153 37.0903 8.28153C40.2346 8.28153 42.5369 9.36325 44.0834 11.1491V8.944H51.1277ZM44.0821 20.679C44.0821 17.1597 41.734 14.9546 38.5011 14.9546C35.26 14.9546 32.92 17.1597 32.92 20.679C32.92 24.1996 35.2681 26.4033 38.5011 26.4033C41.734 26.4114 44.0821 24.2063 44.0821 20.679ZM68.675 8.944V15.8616C65.2537 15.1118 60.7297 17.1597 60.7297 21.8118V32.422H53.6855V8.944H60.723V13.1231C61.6684 9.97869 64.5934 8.46294 68.675 8.944ZM81.1872 24.0182C81.1872 26.0365 82.9221 26.2246 86.0205 26.0365V32.422C76.8219 33.3599 74.1444 30.5918 74.1444 24.0182V15.7044H70.3923V8.944H74.1444V0L81.1805 0.00671875V8.95072H86.0125V15.7125H81.1872V24.0182ZM97.7824 20.687C97.7824 13.6942 103.088 8.29094 110.222 8.29094C114.776 8.29094 118.811 10.6842 120.83 14.3015L114.686 17.8652C113.891 16.2218 112.195 15.2395 110.132 15.2395C107.079 15.2395 104.828 17.4459 104.828 20.687C104.828 23.9282 107.078 26.1346 110.132 26.1346C112.195 26.1346 113.935 25.151 114.686 23.5076L120.83 27.0282C118.813 30.6886 114.82 33.0831 110.222 33.0831C103.088 33.0751 97.7824 27.6812 97.7824 20.687ZM122.375 0.07525H129.413V32.4153H122.375V0.07525ZM144.687 26.7877C146.608 26.7877 148.25 26.0365 149.195 25.0005L154.83 28.2429C152.526 31.4317 149.061 33.0751 144.597 33.0751C136.57 33.0751 131.595 27.6799 131.595 20.679C131.595 13.6861 136.667 8.28288 144.079 8.28288C150.929 8.28288 156 13.588 156 20.679C156 21.6626 155.902 22.6073 155.715 23.4928H139.052C139.945 25.9384 142.099 26.7877 144.687 26.7877ZM149 18.2414C148.25 15.5163 146.134 14.5327 144.027 14.5327C141.348 14.5327 139.57 15.8468 138.91 18.2414H149ZM12.484 8.78678H7.37369V16.0793H0V43H7.37503V32.1452H12.484C19.1974 32.1452 24.4046 26.9368 24.4046 20.468C24.4046 14.0005 19.1988 8.78678 12.484 8.78678ZM12.484 24.8446H7.37369V16.0874H12.484C14.8698 16.0874 16.6167 17.9861 16.6167 20.468C16.6167 22.9459 14.8617 24.8446 12.484 24.8446ZM89.2011 8.944H96.2372V32.4153H89.2024L89.2011 8.944ZM96.2372 0.07525H89.2024V6.708H96.2385L96.2372 0.07525Z" fill="#95969D"></path>
    <path d="M96.2372 0.0751953H89.2024V6.70795H96.2385L96.2372 0.0751953Z" fill="#95969D"></path>
  </g>
  <defs>
    <clipPath id="clip0_74_1920">
      <rect width="156" height="43" fill="white"></rect>
    </clipPath>
  </defs>
</svg>
